<svg  xmlns="http://www.w3.org/2000/svg" viewBox="0 0 24 24">
 <g id="Layer_1">
  <title>Layer 1</title>
  <ellipse ry="10.9294" rx="11.17922" id="svg_1" cy="12.15613" cx="12" stroke="#ffffff" fill="none"/>
  <ellipse ry="1.68625" rx="1.77993" id="svg_4" cy="9.15836" cx="8.34646" stroke="#ffffff" fill="none"/>
  <ellipse ry="1.68625" rx="1.77993" id="svg_5" cy="9.15836" cx="15.59109" stroke="#ffffff" fill="none"/>
  <path id="svg_6" d="m4.94273,13.96729" opacity="NaN" stroke="#ffffff" fill="none"/>
  <path d="m4.50555,13.84239c0,0.12491 0.05029,0.25318 0.12491,0.49963c0.5381,1.77721 0.67515,1.98466 1.18662,2.68551c0.49532,0.67871 1.09089,1.39235 1.49889,1.56134c0.0577,0.0239 0.24242,0.07434 0.43718,0.18736c0.12079,0.0701 0.37585,0.17555 0.43718,0.18736c0.33026,0.0636 0.37921,0.16808 0.68699,0.24981c0.19088,0.05069 0.5012,0.1175 0.8119,0.18736c0.25123,0.05649 0.43254,0.15598 0.74944,0.18736c0.1243,0.01231 1.06202,0.18121 1.12417,0.18736c0.3169,0.03138 0.43426,0.09362 0.93681,0.12491c0.49866,0.03105 0.62454,0 0.87435,0c0.18736,0 0.62615,0.02001 0.74944,0c0.19495,-0.03164 0.43206,0.08971 0.93681,-0.18736c0.07742,-0.0425 0.23853,-0.13874 0.31227,-0.18736c0.28078,-0.18514 0.48835,-0.20119 0.56208,-0.24981c0.28078,-0.18514 0.40837,-0.22523 0.56208,-0.31227c0.22408,-0.12687 0.31681,-0.11753 0.62454,-0.31227c0.19028,-0.12042 0.20672,-0.08353 0.37472,-0.18736c0.30053,-0.18574 0.32159,-0.27943 0.37472,-0.31227c0.1188,-0.07342 0.17455,-0.26357 0.37472,-0.43718c0.2359,-0.2046 0.24981,-0.18736 0.43718,-0.37472c0,0 0.06245,-0.12491 0.06245,-0.12491c0.06245,-0.06245 0.02108,-0.08182 0.12491,-0.24981c0.04643,-0.07513 0.06245,-0.06245 0.06245,-0.24981c0,0 0.11056,-0.25149 0.12491,-0.31227c0.03209,-0.13592 0.1149,-0.31308 0.12491,-0.37472c0.03164,-0.19495 0.18456,-0.22166 0.24981,-0.43718c0.0181,-0.05977 0,-0.12491 0.12491,-0.18736c0,0 0,-0.06245 0.06245,-0.06245c0,0 0,-0.06245 0,-0.06245c0,0 0,0 0,0c0,-0.06245 0,-0.06245 0,-0.06245c0,0 0,0 0,-0.06245c0,-0.06245 0,-0.24981 0,-0.24981c0,-0.06245 0,-0.06245 0,-0.06245c0,0 0,-0.06245 0,-0.06245c0,0 0.03037,0.01101 0.06245,-0.12491c0.01435,-0.06078 0.04719,-0.56302 0.06245,-0.68699c0.03146,-0.25557 0.06245,-0.31227 0.06245,-0.37472l0,-0.06245l0,0l0,-0.06245" id="svg_7" stroke="#ffffff" fill="none"/>
  <path d="m4.81782,13.84239c0.24981,0.12491 0.61655,0.39164 0.99926,0.56208c1.71629,0.76437 2.1213,0.78064 2.81042,0.8119c0.31195,0.01415 0.31227,0 0.56208,0c0.49963,0 0.62454,0 1.24907,0c0.06245,0 0.43824,0.02576 0.74944,0c0.3786,-0.03133 0.68699,-0.06245 1.06171,-0.06245c0.37472,0 0.56269,0.01231 0.68699,0c0.3169,-0.03138 0.43718,-0.06245 0.49963,-0.06245c0.31227,0 0.37472,-0.06245 0.56208,-0.06245c0.06245,0 0.31308,0.01 0.37472,0c0.19495,-0.03164 0.32229,0.02364 0.68699,-0.06245c0.13591,-0.03209 0.43772,-0.11062 0.62454,-0.12491c0.81906,-0.06264 0.93389,-0.21853 1.43644,-0.24981c0.12467,-0.00776 0.43232,-0.07953 0.62454,-0.12491c0.4298,-0.10146 0.62454,-0.12491 1.12417,-0.24981c0,0 0.06245,-0.06245 0.12491,-0.06245c0,0 0,0 0,0l0.06245,0" id="svg_8" stroke="#ffffff" fill="none"/>
  <path d="m9.4394,16.34053c-0.06245,0.24981 -0.29184,0.6694 -0.56208,1.37398c-0.44564,1.16185 -0.44718,1.37479 -0.43718,1.43644c0.03164,0.19495 0.06844,0.43588 0.18736,0.99926c0.06577,0.31159 0.21789,0.70087 0.31227,0.87435c0.19111,0.35128 0.28184,0.42179 0.93681,0.8119c0.35994,0.21439 0.56269,0.24115 0.62454,0.24981c0.45027,0.06306 0.49963,0.12491 0.93681,0.12491c0.06245,0 0.62484,0.00616 0.68699,0c0.3169,-0.03138 0.52486,-0.15061 0.8119,-0.37472c0.13923,-0.10871 0.74403,-1.4385 0.93681,-1.93607c0.36452,-0.94082 0.74823,-1.66005 0.87435,-2.5606c0.01732,-0.1237 0.12491,-0.49963 0.12491,-0.56208c0,-0.12491 0,-0.12491 0,-0.18736c0,-0.06245 0,-0.12491 0,-0.12491l0,-0.06245l0,0l0,-0.06245" id="svg_9" stroke="#ffffff" fill="none"/>
  <path d="m12.06245,16.40299c0,0.06245 -0.07434,0.17996 -0.18736,0.37472c-0.0701,0.12079 -0.24981,0.49963 -0.31227,0.62454c-0.06245,0.12491 -0.26079,0.55718 -0.31227,0.68699c-0.24037,0.60611 -0.27847,0.79275 -0.31227,0.87435c-0.0717,0.1731 -0.09111,0.54294 -0.12491,0.62454c-0.0478,0.1154 0,0.18736 0,0.18736l0,0l0,0.06245" id="svg_10" stroke="#ffffff" fill="none"/>
  <path d="m29.86177,18.02678c0.12491,0.06245 0.12491,0.12491 0.24981,0.37472l0,0" id="svg_11" stroke="#ffffff" fill="none"/>
  <path d="m10.87583,19.21341c0,0.06245 0.00615,0.12521 0,0.18736c-0.03138,0.3169 -0.06245,0.37472 -0.06245,0.62454c0,0 0,0.06245 0,0.12491c0,0.06245 0.02865,0.04331 0.06245,0.12491c0.0239,0.0577 0,0.06245 0,0.06245c0,0.06245 0,0.06245 0.06245,0.12491c0,0 0.08075,-0.04416 0.12491,0c0.04416,0.04416 0,0.06245 0,0.06245c0.06245,0 0.06245,0 0.06245,0l0,0l0,0l0,0" id="svg_12" stroke="#ffffff" fill="none"/>
  <polyline stroke-linecap="round" id="svg_13" points="38.85510490834713,18.463961686939 38.16811381652951,18.214146744459867 37.293761517852545,17.839424330741167 " stroke="#ffffff" fill="none"/>
 </g>

</svg>