<svg xmlns="http://www.w3.org/2000/svg" viewBox="0 0 24 24">
 <g id="Layer_1">
  <title>Layer 1</title>
  <path fill="#ffffff" stroke="#ffffff" d="m4.67271,2.74311c0,-0.98919 1.24742,-1.79044 2.78745,-1.79044c1.54003,0 2.78745,0.80124 2.78745,1.79044c0,0.98919 -1.24742,1.79044 -2.78745,1.79044c-1.54003,0 -2.78745,-0.80124 -2.78745,-1.79044zm9.3719,5.06809l0,-0.90422c0,-0.95138 -1.20004,-1.72274 -2.68206,-1.72274l-7.81341,0c-1.48116,0 -2.68205,0.77136 -2.68205,1.72274l0,0.90422c-0.00259,0.02052 -0.00432,0.04161 -0.00432,0.06297l0,5.20816c0,0.40468 0.51041,0.73252 1.14045,0.73252c0.62917,0 1.14087,-0.32785 1.14087,-0.73252l0,-5.13105l0.76476,0l0,5.86413l0.00562,0l0,8.28585c0,0.53866 0.68099,0.97634 1.52046,0.97634c0.8399,0 1.52046,-0.43713 1.52046,-0.97634l0,-8.28585l1.00313,0l0,8.28585c0,0.53866 0.68141,0.97634 1.52044,0.97634c0.83989,0 1.52044,-0.43713 1.52044,-0.97634l0,-8.28585l0.00475,0l0,-5.86413l0.76476,0l0,5.13078c0,0.40468 0.51171,0.73281 1.14088,0.73281c0.63004,0 1.14045,-0.32812 1.14045,-0.73281l0,-5.20816c-0.00043,-0.02164 -0.00302,-0.04216 -0.00562,-0.06268l0,0l-0.00002,-0.00001z" id="svg_2"/>
  <path fill="#ffffff" stroke="#ffffff" d="m17.53579,6.26033c1.14775,0 2.07929,-0.7266 2.07929,-1.62295c0,-0.89686 -0.93154,-1.62396 -2.07929,-1.62396c-1.14872,0 -2.08057,0.7271 -2.08057,1.62396c0,0.89635 0.93154,1.62295 2.08057,1.62295zm5.83153,6.99934l-1.86597,-5.4018c-0.01741,-0.04905 -0.0419,-0.09583 -0.07153,-0.13908c-0.21202,-0.50603 -0.82069,-0.87247 -1.53956,-0.87247l-4.72277,0c-0.74949,0 -1.37878,0.39788 -1.56405,0.93786c-0.01256,0.02364 -0.02287,0.04854 -0.03222,0.07419l-1.83278,5.40155c-0.12213,0.35411 0.14725,0.71804 0.60158,0.81337c0.45369,0.09481 0.91994,-0.11544 1.04206,-0.46956l1.43935,-4.24311l0.59965,0l-2.61224,7.67715l2.46144,0l0,5.30019c0,0.40768 0.42275,0.73791 0.94572,0.73791c0.52167,0 0.94539,-0.32997 0.94539,-0.73791l0,-5.30019l0.75206,0l0,5.30019c0,0.40768 0.4234,0.73791 0.94636,0.73791c0.52167,0 0.94539,-0.32997 0.94539,-0.73791l0,-5.30019l2.46014,0l-2.6219,-7.67715l0.61545,0l1.46577,4.24311c0.12213,0.35411 0.58838,0.56437 1.04206,0.46956c0.45272,-0.09533 0.7221,-0.45949 0.60062,-0.81362l0,0l-0.00001,0z" id="svg_4"/>
 </g>

</svg>